<svg xmlns="http://www.w3.org/2000/svg" width="57.99" height="66.274" viewBox="0 0 57.99 66.274">
  <defs>
    <style>
      .cls-1 {
        fill: #48cfad;
      }
    </style>
  </defs>
  <path id="calendar-plus-regular" class="cls-1" d="M28.995,30.03A3.1,3.1,0,0,1,32.1,33.137V39.35h6.213a3.107,3.107,0,1,1,0,6.213H32.1v6.213a3.107,3.107,0,1,1-6.213,0V45.563H19.675a3.107,3.107,0,1,1,0-6.213h6.213V33.137A3.1,3.1,0,0,1,28.995,30.03ZM19.675,8.284h18.64V3.107a3.107,3.107,0,0,1,6.213,0V8.284h5.178a8.288,8.288,0,0,1,8.284,8.284V57.99a8.292,8.292,0,0,1-8.284,8.284H8.284A8.288,8.288,0,0,1,0,57.99V16.568A8.284,8.284,0,0,1,8.284,8.284h5.178V3.107a3.107,3.107,0,0,1,6.213,0ZM6.213,57.99a2.074,2.074,0,0,0,2.071,2.071H49.705a2.077,2.077,0,0,0,2.071-2.071V24.853H6.213Z"/>
</svg>
