<svg xmlns="http://www.w3.org/2000/svg" width="18" height="18" viewBox="0 0 18 18">
  <path id="sack-dollar-solid" d="M11.25,3.375H6.75L5.084.875A.562.562,0,0,1,5.551,0h6.9a.562.562,0,0,1,.468.875ZM6.75,4.5h4.5c.134.088.285.186.457.3C13.7,6.071,18,8.821,18,14.625A3.376,3.376,0,0,1,14.625,18H3.375A3.376,3.376,0,0,1,0,14.625c0-5.8,4.3-8.554,6.293-9.83h0c.169-.109.323-.207.457-.3ZM9.707,7.875a.707.707,0,1,0-1.413,0v.211a2.885,2.885,0,0,0-.559.179A1.812,1.812,0,0,0,6.641,9.591a1.678,1.678,0,0,0,.12,1.02,1.74,1.74,0,0,0,.608.686,5.01,5.01,0,0,0,1.357.563l.077.025a3.716,3.716,0,0,1,1.03.411.371.371,0,0,1,.134.144.425.425,0,0,1,.007.236.4.4,0,0,1-.281.309,1.922,1.922,0,0,1-1.013.067,7.283,7.283,0,0,1-.921-.278h0q-.116-.042-.221-.074a.7.7,0,1,0-.443,1.336l.155.053c.278.095.714.243,1.048.32v.218a.707.707,0,0,0,1.413,0v-.193a2.536,2.536,0,0,0,.541-.162,1.834,1.834,0,0,0,1.005-2.394,1.764,1.764,0,0,0-.594-.721,4.906,4.906,0,0,0-1.42-.612l-.028-.007a4.323,4.323,0,0,1-1.051-.4.344.344,0,0,1-.127-.123c-.007-.011-.025-.056,0-.176.011-.067.067-.183.288-.285a1.823,1.823,0,0,1,1.005-.091c.151.025.629.116.763.151a.7.7,0,1,0,.362-1.361c-.155-.042-.506-.113-.738-.155V7.875Z"/>
</svg>
