<svg xmlns="http://www.w3.org/2000/svg" width="57.987" height="66.274" viewBox="0 0 57.987 66.274">
  <defs>
    <style>
      .cls-1 {
        fill: #48cfad;
      }
    </style>
  </defs>
  <path id="fire-solid" class="cls-1" d="M20.619.677A2.622,2.622,0,0,1,24.2.69,104.436,104.436,0,0,1,34.261,11.562,47.2,47.2,0,0,1,39.05,6.01a2.632,2.632,0,0,1,3.624.013A56.24,56.24,0,0,1,53.612,21.3c2.628,5.281,4.375,10.678,4.375,14.484,0,16.516-12.918,30.469-28.993,30.469C12.736,66.249,0,52.283,0,35.767,0,30.8,2.3,24.726,5.876,18.72A82.794,82.794,0,0,1,20.619.677Zm8.594,53.146A15.629,15.629,0,0,0,38.119,51.1c5.449-3.805,6.912-11.416,3.637-17.4a13.515,13.515,0,0,0-1.268-2.175l-6.549,7.611S23.4,25.736,22.664,24.829c-5.436,6.7-8.167,10.51-8.167,14.859C14.5,48.568,21.046,53.823,29.213,53.823Z" transform="translate(0 0.025)"/>
</svg>
