<svg id="Gruppe_37" data-name="Gruppe 37" xmlns="http://www.w3.org/2000/svg" width="22.54" height="30" viewBox="0 0 22.54 30">
  <path id="Pfad_24" data-name="Pfad 24" d="M207.585,189.07a12.058,12.058,0,0,1,1.209-5.153,11.154,11.154,0,0,1,3.068-3.735,10.848,10.848,0,0,1,5.179-2.25,11.076,11.076,0,0,1,7.739,1.507,10.841,10.841,0,0,1,5.007,6.872,11.349,11.349,0,0,1,.337,2.689,9.168,9.168,0,0,1-.379,2.4,22.238,22.238,0,0,1-2.107,4.887,75.773,75.773,0,0,1-5,7.689q-1.078,1.5-2.234,2.939a2.082,2.082,0,0,1-1.007.776,1.709,1.709,0,0,1-1.943-.615,80.347,80.347,0,0,1-6.206-8.7,38.794,38.794,0,0,1-2.509-4.77,14.389,14.389,0,0,1-1.1-3.877C207.6,189.469,207.6,189.212,207.585,189.07Zm2.817.027c.005.069.01.188.023.305a10.647,10.647,0,0,0,.906,3.078,41.985,41.985,0,0,0,3.365,6.028c1.264,1.959,2.669,3.818,4.064,5.685.087.117.122.083.192-.008a71.465,71.465,0,0,0,5.351-7.749,31.335,31.335,0,0,0,2.325-4.566,10.636,10.636,0,0,0,.62-2.135,6.938,6.938,0,0,0-.264-2.945,8.026,8.026,0,0,0-3.625-4.888,8.357,8.357,0,0,0-6.295-1.094,8.178,8.178,0,0,0-4.2,2.259A8.583,8.583,0,0,0,210.4,189.1Z" transform="translate(-207.585 -177.779)"/>
  <path id="Pfad_25" data-name="Pfad 25" d="M265.078,230.3a4.719,4.719,0,0,1,4.853,4.856,4.843,4.843,0,0,1-9.686,0A4.718,4.718,0,0,1,265.078,230.3Zm1.955,4.866a1.947,1.947,0,0,0-3.893-.018,1.947,1.947,0,0,0,3.893.018Z" transform="translate(-253.819 -223.835)"/>
</svg>
