<svg xmlns="http://www.w3.org/2000/svg" width="70" height="70" viewBox="0 0 70 70">
  <defs>
    <style>
      .cls-1 {
        fill: #48cfad;
      }
    </style>
  </defs>
  <path id="route-solid" class="cls-1" d="M87.75,54S108,33.75,108,20.25a20.25,20.25,0,0,0-40.5,0c0,6.2,4.261,13.816,8.88,20.25H67.5a20.25,20.25,0,0,0,0,40.5H87.75a6.75,6.75,0,0,1,0,13.5H39.783c-1.308,2.025-2.658,3.966-4.008,5.738-2.257,3-4.493,5.674-6.328,7.762h58.3a20.25,20.25,0,0,0,0-40.5H67.5a6.75,6.75,0,0,1,0-13.5Zm0-27a6.75,6.75,0,1,1,6.75-6.75A6.743,6.743,0,0,1,87.75,27ZM31.62,94.5c4.62-6.434,8.88-14.048,8.88-20.25a20.25,20.25,0,0,0-40.5,0C0,87.75,20.25,108,20.25,108s.738-.738,1.941-2.025c.084-.084.148-.169.232-.253.7-.738,1.5-1.645,2.4-2.7l.127-.127C26.937,100.617,29.32,97.706,31.62,94.5ZM20.25,81A6.75,6.75,0,1,1,27,74.25,6.743,6.743,0,0,1,20.25,81Z"/>
</svg>
