<?xml version="1.0" encoding="UTF-8"?>
<svg id="Ebene_2" data-name="Ebene 2" xmlns="http://www.w3.org/2000/svg" viewBox="0 0 583.42 215.94">
  <defs>
    <style>
      .cls-1 {
        fill: #5dbca4;
      }
    </style>
  </defs>
  <g id="Ebene_2-2" data-name="Ebene 2">
    <path class="cls-1" d="M69.95,70.18c-.48,3.8-.96,7.6-1.44,11.39-1.9,15.08-3.79,30.54-.3,45.33,3.49,14.79,13.55,29.01,28.21,33.01,7.86,2.15,16.19,1.22,24.29,.27,19.64-2.3,39.29-4.6,58.93-6.9,2.89-.34,5.85-.7,8.41-2.07,4.15-2.22,6.5-6.66,9.3-10.44,7.9-10.68,22.62-17.3,34.91-12.25-5.27,4.74-12.33,6.84-18.61,10.13-6.28,3.29-12.38,8.79-12.61,15.87,10.91-3.01,20.27-12.1,31.58-11.57,11.31,.53,20.35,11.78,20.29,23.1-.06,11.32-7.81,21.7-17.83,26.97-9.18,4.82-21.37,5.49-29.26-1.23-5.73-4.88-8.2-12.85-7.72-20.36,.14-2.12,.36-4.59-1.19-6.05-1.38-1.29-3.52-1.15-5.4-.93-26.17,3.11-52.33,6.21-78.5,9.32-9.46,1.12-19.59,2.13-28.03-2.28-9.84-5.15-11.62-12.91-19.49-12.98-3.98,.4-6.33,2.65-4.59,5.52,1.76,2.91,0,0,2.03,2.72,8.62,11.52,7.64,29.19-2.21,39.69-7.57,8.06-19.66,11.16-30.31,8.62-2.68-.64-5.11-1.7-7.56-2.93-2.78-1.4-4.05-3.5-5.35-6.34-2.67-5.79-3.39-12.5-1.84-18.7,2.09-8.36,8.24-15.59,16.16-19,4.16-1.79,8.9-2.66,12.17-5.79,3.82-3.65,4.62-9.37,5.19-14.63,4.56-41.6,9.12-83.2,13.68-124.81C42.39,21.79-.02,26.46,0,18.67c1.49-7.2,12.34-5.53,19.69-5.75,35.03-1.03,70.07-2.07,105.1-3.1,3.37-.1,7.67,.44,8.6,3.68,.63,2.23-.94,4.61-2.99,5.69s-4.47,1.16-6.79,1.22c-13.93,.37-27.86,.75-41.79,1.12-1.3,.03-2.67,.09-3.79,.75-2.01,1.19-2.5,3.83-2.79,6.14-1.76,13.92-3.51,27.83-5.27,41.75ZM26.4,193.85c-.19,9.53,9.48,13.14,18.05,9.58,4.65-1.93,8.76-5.31,11.12-9.76s2.83-9.95,.82-14.56c-.42-.97-.97-1.92-1.83-2.54-.76-.55-1.7-.78-2.62-.95-7.09-1.28-14.75,1.06-19.9,6.1-2.7,2.64-4.74,6.02-5.4,9.73-.15,.83-.22,1.63-.24,2.39Zm195.04-7.92c4.89,.06,9.65-1.74,13.03-4.03,3.21-2.18,5.79-5.04,7.65-8.43,2.12-3.86,2.67-8.04,1.56-12.3-1.55-5.94-8.63-8.55-13.54-7.93-1.05,.13-2.07,.47-3.11,.66-4.6,.82-8.34,3.18-11.5,6.5-4.13,4.34-6.63,9.38-5.63,15.51,.4,2.49,1.19,4.98,2.99,6.99,2.32,2.59,5.34,3.02,8.54,3.03Z"/>
  </g>
</svg>