<svg xmlns="http://www.w3.org/2000/svg" xmlns:xlink="http://www.w3.org/1999/xlink" width="19.286" height="18" viewBox="0 0 19.286 18">
  <defs>
    <style>
      .cls-1 {
        fill: #fff;
        stroke: #707070;
      }

      .cls-2 {
        clip-path: url(#clip-path);
      }
    </style>
    <clipPath id="clip-path">
      <rect id="Rechteck_9" data-name="Rechteck 9" class="cls-1" width="19.286" height="18"/>
    </clipPath>
  </defs>
  <g id="Gruppe_maskieren_1" data-name="Gruppe maskieren 1" class="cls-2">
    <path id="person-solid" d="M7.293,1.679A1.679,1.679,0,1,1,5.614,0,1.68,1.68,0,0,1,7.293,1.679ZM5.334,12.314v4.478a1.119,1.119,0,0,1-2.239,0v-7.8l-1,1.665A1.119,1.119,0,1,1,.177,9.5L2.217,6.1A3.361,3.361,0,0,1,5.1,4.474H6.135A3.361,3.361,0,0,1,9.014,6.1L11.053,9.5a1.119,1.119,0,1,1-1.917,1.154l-1-1.665v7.8a1.119,1.119,0,1,1-2.239,0V12.314Z" transform="translate(4.018 0.089)"/>
  </g>
</svg>
