<svg xmlns="http://www.w3.org/2000/svg" width="20" height="20" viewBox="0 0 20 20">
  <defs>
    <style>
      .cls-1 {
        fill: #f8f8f8;
      }
    </style>
  </defs>
  <path id="phone-solid" class="cls-1" d="M6.441.939A1.558,1.558,0,0,0,4.59.033L1.152.97A1.567,1.567,0,0,0,0,2.478a17.5,17.5,0,0,0,17.5,17.5,1.567,1.567,0,0,0,1.508-1.152l.937-3.437a1.558,1.558,0,0,0-.906-1.851l-3.75-1.562a1.557,1.557,0,0,0-1.809.453L11.9,14.353A13.2,13.2,0,0,1,5.625,8.076L7.55,6.5A1.559,1.559,0,0,0,8,4.693L6.441.943Z" transform="translate(0 0.022)"/>
</svg>
