<svg xmlns="http://www.w3.org/2000/svg" width="36.81" height="30" viewBox="0 0 36.81 30">
  <defs>
    <style>
      .cls-1 {
        fill: #49ccab;
      }
    </style>
  </defs>
  <g id="Gruppe_35" data-name="Gruppe 35" transform="translate(0)">
    <path id="Pfad_17" data-name="Pfad 17" class="cls-1" d="M144.033,206.739l-.209,1.658a18.634,18.634,0,0,0-.044,6.6,6.325,6.325,0,0,0,4.106,4.8,9.324,9.324,0,0,0,3.535.039l8.577-1a3.388,3.388,0,0,0,1.224-.3,4.693,4.693,0,0,0,1.354-1.519,4.519,4.519,0,0,1,5.081-1.784,12.443,12.443,0,0,1-2.708,1.474,3,3,0,0,0-1.835,2.31c1.588-.438,2.95-1.761,4.6-1.684a3.355,3.355,0,0,1,2.953,3.362,4.67,4.67,0,0,1-2.6,3.925,3.907,3.907,0,0,1-4.259-.179,3.6,3.6,0,0,1-1.124-2.964c.02-.309.052-.668-.174-.88a.966.966,0,0,0-.786-.135L150.3,221.817a7,7,0,0,1-4.08-.333c-1.432-.749-1.691-1.879-2.836-1.888-.579.058-.921.386-.668.8s0,0,.3.4a4.484,4.484,0,0,1-4.732,7.031,5.006,5.006,0,0,1-1.1-.427,1.685,1.685,0,0,1-.779-.922,4.08,4.08,0,0,1,2.084-5.487,5.587,5.587,0,0,0,1.771-.843,3.347,3.347,0,0,0,.756-2.129L143,199.855c-2.981-.159-9.153.52-9.15-.613.217-1.047,1.8-.805,2.866-.837l15.3-.451c.491-.014,1.117.064,1.251.536a.766.766,0,0,1-.436.828,2.239,2.239,0,0,1-.988.178l-6.083.163a1.128,1.128,0,0,0-.552.11,1.143,1.143,0,0,0-.406.894Zm-6.339,18c-.028,1.387,1.379,1.912,2.628,1.395a3.215,3.215,0,0,0,1.618-1.42,2.479,2.479,0,0,0,.119-2.119.865.865,0,0,0-.267-.369.926.926,0,0,0-.381-.138,3.359,3.359,0,0,0-2.9.887,2.661,2.661,0,0,0-.785,1.417A2.279,2.279,0,0,0,137.694,224.737Zm28.386-1.152a3.42,3.42,0,0,0,1.9-.586,3.517,3.517,0,0,0,1.114-1.228,2.382,2.382,0,0,0,.228-1.791,1.824,1.824,0,0,0-1.97-1.155c-.152.019-.3.069-.452.1a3.019,3.019,0,0,0-1.674.946,2.581,2.581,0,0,0-.82,2.258,1.948,1.948,0,0,0,.436,1.018A1.537,1.537,0,0,0,166.08,223.585Z" transform="translate(-133.852 -197.953)"/>
  </g>
</svg>
