<svg xmlns="http://www.w3.org/2000/svg" width="30" height="30" viewBox="0 0 30 30">
  <defs>
    <style>
      .cls-1 {
        fill: #141414;
      }
    </style>
  </defs>
  <path id="Pfad_26" data-name="Pfad 26" class="cls-1" d="M230.2,154.983a15,15,0,1,0,15,15A15,15,0,0,0,230.2,154.983Zm11.428,14.355h-8.573a2.912,2.912,0,0,0-.38-.917l6.062-6.062A11.4,11.4,0,0,1,241.624,169.338Zm-9.866-1.829a2.909,2.909,0,0,0-.917-.38v-8.573a11.4,11.4,0,0,1,6.979,2.891Zm-2.207-8.953v8.573a2.911,2.911,0,0,0-.917.38l-6.062-6.062A11.4,11.4,0,0,1,229.551,158.555Zm-7.891,3.8,6.062,6.062a2.906,2.906,0,0,0-.38.917h-8.573A11.4,11.4,0,0,1,221.659,162.359Zm-2.891,8.269h8.573a2.906,2.906,0,0,0,.38.917l-6.062,6.062A11.4,11.4,0,0,1,218.768,170.628Zm9.866,1.829a2.911,2.911,0,0,0,.917.38v8.573a11.4,11.4,0,0,1-6.979-2.891Zm2.207,8.953v-8.573a2.906,2.906,0,0,0,.917-.38l6.062,6.062A11.4,11.4,0,0,1,230.841,181.411Zm7.891-3.8-6.062-6.062a2.914,2.914,0,0,0,.38-.917h8.573A11.4,11.4,0,0,1,238.733,177.607Z" transform="translate(-215.196 -154.983)"/>
</svg>
